<?xml version="1.0" standalone="no"?>
<!DOCTYPE svg PUBLIC "-//W3C//DTD SVG 20010904//EN"
 "http://www.w3.org/TR/2001/REC-SVG-20010904/DTD/svg10.dtd">
<svg version="1.0" xmlns="http://www.w3.org/2000/svg"
 width="400.000000pt" height="400.000000pt" viewBox="0 0 400.000000 400.000000"
 preserveAspectRatio="xMidYMid meet">
<metadata>
Created by potrace 1.11, written by Peter Selinger 2001-2013
</metadata>
<g transform="translate(0.000000,400.000000) scale(0.100000,-0.100000)"
fill="#000000" stroke="none">
<path d="M1940 3440 c-40 -10 -255 -52 -287 -56 -12 -1 -34 -5 -50 -8 -32 -7
-36 -8 -153 -30 -47 -8 -101 -18 -120 -21 -19 -3 -42 -8 -50 -10 -8 -2 -31 -7
-50 -10 -140 -25 -191 -34 -220 -41 -14 -3 -36 -8 -50 -10 -14 -2 -36 -6 -50
-9 -14 -3 -41 -8 -60 -11 -19 -3 -42 -7 -50 -9 -8 -2 -31 -7 -50 -10 -193 -32
-279 -53 -309 -76 -119 -94 -107 -333 25 -488 20 -22 37 -51 39 -63 2 -13 6
-36 9 -51 15 -85 62 -205 98 -247 7 -8 58 -51 113 -95 106 -85 125 -101 125
-108 0 -2 -80 -52 -177 -111 -98 -59 -186 -118 -196 -131 -41 -56 -38 -158 9
-253 49 -100 143 -176 264 -212 49 -15 63 -23 66 -42 12 -72 34 -155 89 -333
24 -77 56 -183 70 -235 15 -52 38 -130 52 -173 24 -74 26 -78 51 -73 31 5 100
24 122 33 8 3 22 7 30 8 8 1 74 19 145 40 142 41 187 53 225 61 14 2 34 9 45
14 19 9 121 39 137 41 4 0 38 9 75 20 55 16 312 88 373 104 8 2 40 12 70 20
63 19 79 20 136 10 37 -6 43 -5 49 14 7 23 47 47 91 56 16 3 70 16 119 31 50
14 99 27 110 29 11 1 49 12 85 23 36 11 101 29 145 41 44 13 87 25 95 28 8 3
21 7 29 9 27 5 146 36 161 42 8 3 21 6 29 8 20 4 152 45 180 55 l23 10 -35 27
c-29 23 -33 31 -25 51 6 17 5 27 -4 33 -10 6 -10 8 0 8 6 0 11 3 10 8 -1 4 4
20 10 35 7 16 10 33 6 38 -3 5 -1 9 4 9 12 0 32 99 21 106 -5 3 -9 10 -9 15 0
6 4 8 9 4 6 -3 15 4 21 15 6 11 21 20 33 20 22 0 55 16 47 23 -3 2 -88 59
-190 127 -102 68 -227 152 -278 187 -51 35 -95 63 -98 63 -2 0 -12 7 -21 15
-10 8 -27 21 -37 28 -19 14 -19 15 5 58 21 37 32 46 89 67 36 13 90 33 120 45
30 12 60 22 65 23 11 2 147 51 185 67 14 6 28 11 33 11 19 2 5 22 -22 30 -22
6 -30 14 -27 25 10 33 38 157 42 186 4 28 12 67 18 90 2 6 6 26 10 46 7 33 11
37 49 43 27 5 37 10 30 17 -9 9 -285 85 -338 94 -11 2 -33 8 -49 14 l-29 12
22 23 c25 27 18 37 -27 38 -24 1 -27 4 -27 37 1 20 4 46 8 57 7 20 12 47 22
114 2 14 8 42 13 63 10 39 9 40 -23 38 -11 -1 10 17 48 41 37 24 67 48 67 55
0 8 -16 13 -42 14 -24 1 -56 2 -73 4 -129 11 -184 16 -210 20 -27 4 -76 8
-220 20 -165 14 -193 17 -220 20 -16 3 -61 7 -100 10 -38 3 -92 8 -120 10
-121 13 -156 15 -245 20 -52 2 -111 0 -130 -5z"/>
</g>
</svg>
